<mxfile host="app.diagrams.net" modified="2024-04-14T19:19:04.128Z" agent="Mozilla/5.0 (Macintosh; Intel Mac OS X 10_15_7) AppleWebKit/537.36 (KHTML, like Gecko) Chrome/123.0.0.0 Safari/537.36" version="24.2.5" etag="nDAW3DbsbEJYmB86tBr3" type="github">
  <diagram name="Page-1" id="In85jW52RPiKe74jdPwK">
    <mxGraphModel>
      <root>
        <mxCell id="0" />
        <mxCell id="1" parent="0" />
      </root>
    </mxGraphModel>
  </diagram>
</mxfile>
